<?xml version="1.0" encoding="UTF-8" standalone="no"?>
<!-- Created with Inkscape (http://www.inkscape.org/) -->

<svg
   version="1.1"
   id="svg2"
   width="512"
   height="512"
   viewBox="0 0 512 512"
   xmlns="http://www.w3.org/2000/svg"
   xmlns:svg="http://www.w3.org/2000/svg">
  <defs
     id="defs6" />
  <g
     id="g8"
     transform="translate(-265.86048,-0.46023041)">
    <g
       id="g170"
       transform="matrix(0.70914127,0,0,2.3925234,265.86048,0.46023041)">
      <path
         style="fill:#fafafa"
         d="m 150.76879,180.43546 c -0.31704,-0.31704 10.18029,-32.58241 23.32739,-71.70082 C 187.24328,69.61623 198,37.47295 198,37.305129 198,37.137308 235.125,37 280.5,37 c 45.375,0 82.46793,0.3375 82.42873,0.75 -0.0392,0.4125 -3.75949,7.275 -8.26732,15.25 l -8.19607,14.5 -62.00963,0.257488 -62.00963,0.257488 -4.1328,12.484741 -4.1328,12.484741 59.84431,0.257771 59.84432,0.257771 -7.8005,14.5 -7.80051,14.5 -56.51842,0.25821 c -43.56283,0.19901 -56.74539,0.54286 -57.50861,1.5 C 203.29502,125.44465 196,147.50597 196,149.18056 c 0,0.44278 29.47365,0.9208 65.49699,1.06225 l 65.49699,0.25719 -8.41079,15 -8.41079,15 -79.41359,0.25595 c -43.67747,0.14077 -79.67298,-0.003 -79.99002,-0.32049 z"
         id="path178" />
      <path
         style="fill:#1155ab"
         d="m 342.26469,176.75 c 1.3501,-2.3375 5.27392,-9.3125 8.71959,-15.5 L 357.24914,150 h 66.6843 c 52.44945,0 67.05633,-0.27204 68.42712,-1.27438 C 494.23945,147.35174 500,131.40254 500,127.57433 c 0,-1.28119 -0.59076,-2.81973 -1.31279,-3.41896 -0.90258,-0.74908 -18.47913,-1.17793 -56.25,-1.37245 L 387.5,122.5 l -4.70049,-2.33686 c -8.73801,-4.34411 -12.70461,-9.94322 -13.51357,-19.07529 -0.56158,-6.339427 1.01056,-13.437997 6.32391,-28.553863 4.85364,-13.808048 8.83455,-20.825517 15.02203,-26.480519 9.86622,-9.017175 4.55123,-8.499887 90.68872,-8.826384 l 75.8206,-0.287391 -5.76494,10.780154 C 548.20554,53.648931 544.42982,60.525 542.98577,63 l -2.62556,4.5 -63.06381,0.257416 c -48.78914,0.199149 -63.29154,0.538678 -64.06987,1.5 -0.55333,0.683421 -2.36524,5.510181 -4.02648,10.726133 -2.15103,6.753808 -2.74832,9.992004 -2.07506,11.25 C 408.0104,92.887942 411.42299,93 460.92035,93 c 59.39292,0 59.38947,-3.66e-4 67.55416,7.18648 8.42459,7.41562 9.93762,18.16705 5.16172,36.67857 -5.23266,20.28196 -10.62395,30.12803 -20.05244,36.62168 C 502.47437,181.13809 504.24623,181 417.17662,181 h -77.36666 z"
         id="path176" />
      <path
         style="fill:#585858"
         d="m 149.2383,179.75 c 0.24876,-0.6875 2.83417,-8.35023 5.74537,-17.02829 2.9112,-8.67805 5.46603,-15.60534 5.6774,-15.39397 0.21137,0.21137 -2.06294,7.61205 -5.05403,16.44597 -2.99108,8.83391 -5.17629,16.3237 -4.85602,16.64398 0.32027,0.32027 0.009,0.58231 -0.69134,0.58231 -0.70051,0 -1.07013,-0.5625 -0.82138,-1.25 z M 311.5,178 c 0.85325,-1.65 1.77636,-3 2.05136,-3 0.275,0 -0.19811,1.35 -1.05136,3 -0.85325,1.65 -1.77636,3 -2.05136,3 -0.275,0 0.19811,-1.35 1.05136,-3 z m 5,-9 c 0.85325,-1.65 1.77636,-3 2.05136,-3 0.275,0 -0.19811,1.35 -1.05136,3 -0.85325,1.65 -1.77636,3 -2.05136,3 -0.275,0 0.19811,-1.35 1.05136,-3 z m 4,-7 c 0.85325,-1.65 1.77636,-3 2.05136,-3 0.275,0 -0.19811,1.35 -1.05136,3 -0.85325,1.65 -1.77636,3 -2.05136,3 -0.275,0 0.19811,-1.35 1.05136,-3 z m 4.5,-8 2.04065,-4 h -65.52033 c -61.76371,0 -65.51579,-0.10034 -65.44137,-1.75 0.0472,-1.04544 0.28201,-1.24674 0.58333,-0.5 0.39622,0.98194 14.39006,1.25 65.25439,1.25 35.6125,0 65.03072,0.28072 65.37382,0.62382 0.63201,0.63202 -2.91005,8.37618 -3.83114,8.37618 -0.275,0 0.41829,-1.8 1.54065,-4 z m -163.92472,-8.49659 c -0.11074,-1.46608 5.06394,-16.69752 5.51838,-16.24308 0.21295,0.21294 -0.92464,4.17898 -2.52796,8.81342 -1.60332,4.63444 -2.94901,7.97778 -2.99042,7.42966 z M 197.0856,145 c -0.0302,-0.825 0.38124,-2.175 0.9144,-3 1.18132,-1.82797 1.18132,-0.24909 0,2.5 -0.56668,1.31874 -0.87815,1.48906 -0.9144,0.5 z m 3.05497,-9 c 0,-0.825 0.38674,-2.4 0.85943,-3.5 0.54172,-1.26064 0.85943,-1.44548 0.85943,-0.5 0,0.825 -0.38674,2.4 -0.85943,3.5 -0.54172,1.26064 -0.85943,1.44548 -0.85943,0.5 z m -33.10616,-8.58333 c 0.0588,-1.56738 6.84445,-19.98495 6.90674,-18.74635 0.0598,1.1896 -5.82194,18.48373 -6.54571,19.24635 -0.21749,0.22916 -0.37995,0.004 -0.36103,-0.5 z m 94.69417,-4.16253 56.22859,-0.27064 1.5471,-2.99175 c 0.8509,-1.64546 1.80196,-2.99175 2.11346,-2.99175 0.31151,0 -0.28771,1.4625 -1.33159,3.25 l -1.89796,3.25 -56.44409,0.0124 -56.44409,0.0124 56.22858,-0.27063 z M 326,108 c 1.66583,-3.3 3.25379,-6 3.52879,-6 0.275,0 -0.86296,2.7 -2.52879,6 -1.66583,3.3 -3.25379,6 -3.52879,6 -0.275,0 0.86296,-2.7 2.52879,-6 z m -150.62052,-5.54935 c 2.13509,-6.968212 7.48136,-21.776243 7.54466,-20.897134 0.0997,1.38444 -6.70578,21.573484 -7.53323,22.348014 -0.35165,0.32916 -0.3568,-0.32374 -0.0114,-1.45088 z M 243.25,92.250577 c 16.3625,-0.154186 43.1375,-0.154186 59.5,0 16.3625,0.154186 2.975,0.280338 -29.75,0.280338 -32.725,0 -46.1125,-0.126152 -29.75,-0.280338 z M 183.37586,78.462915 c 0.32441,-0.845396 1.31418,-4.028764 2.1995,-7.074151 0.88532,-3.045387 1.79955,-5.347186 2.03163,-5.115109 C 188.16518,66.831843 184.08402,80 183.35283,80 c -0.31174,0 -0.30138,-0.691688 0.023,-1.537085 z M 188.19363,64 c 0.28176,-0.825 2.42516,-7.265799 4.76311,-14.312887 2.33795,-7.047087 4.42441,-12.6393 4.63657,-12.427138 0.4861,0.486103 -8.30949,26.816544 -9.2316,27.635651 C 187.98751,65.228032 187.91187,64.825 188.19363,64 Z M 350,61 c 0.5887,-1.1 1.29537,-2 1.57037,-2 0.275,0 0.0183,0.9 -0.57037,2 -0.5887,1.1 -1.29537,2 -1.57037,2 -0.275,0 -0.0183,-0.9 0.57037,-2 z m 5,-9 c 1.12236,-2.2 2.26565,-4 2.54065,-4 0.275,0 -0.41829,1.8 -1.54065,4 -1.12236,2.2 -2.26565,4 -2.54065,4 -0.275,0 0.41829,-1.8 1.54065,-4 z m 4.5,-8 c 0.85325,-1.65 1.77636,-3 2.05136,-3 0.275,0 -0.19811,1.35 -1.05136,3 -0.85325,1.65 -1.77636,3 -2.05136,3 -0.275,0 0.19811,-1.35 1.05136,-3 z m 3.06429,-5.293128 c 0.37553,-0.986221 0.93469,-1.541221 1.24258,-1.233333 0.30789,0.307887 6.4e-4,1.114794 -0.68278,1.793128 -0.98762,0.980267 -1.10248,0.865403 -0.5598,-0.559795 z M 236.32394,36.250293 c 20.80316,-0.150968 54.55316,-0.150898 75,1.56e-4 20.44683,0.151054 3.42606,0.274573 -37.82394,0.274488 -41.25,-8.6e-5 -57.97923,-0.123675 -37.17606,-0.274644 z"
         id="path174" />
      <path
         style="fill:#000000"
         d="M 0,107 V 0 H 361 722 V 107 214 H 361 0 Z m 319.29155,58.79187 c 4.71307,-8.36446 8.34899,-15.56446 8.07982,-16 C 327.1022,149.35634 297.60604,149 261.82435,149 c -61.48026,0 -65.03058,-0.0962 -64.56595,-1.75 0.27041,-0.9625 1.98799,-6.5875 3.81683,-12.5 L 204.4004,124 h 56.67735 c 44.12898,0 56.90412,-0.27675 57.70156,-1.25 0.56331,-0.6875 4.2817,-7.48433 8.26309,-15.10406 5.77791,-11.057963 6.95823,-14.031786 5.84825,-14.734684 -0.76486,-0.484347 -27.56996,-0.887521 -59.56689,-0.895943 L 215.14753,92 l 4.01423,-12 4.01423,-12 h 61.8548 61.8548 l 8.57062,-15.153251 c 4.71384,-8.334288 8.30229,-15.421788 7.97434,-15.75 C 362.50094,36.166411 199.65342,35.834512 198.27876,36.760153 197.40744,37.346861 149.0274,178.71932 149.003,180.75 c -0.002,0.1375 36.38452,0.25 80.85816,0.25 h 80.86116 z m 181.24835,13.66579 c 17.2553,-4.4653 25.89855,-15.4613 33.04762,-42.04347 4.84003,-17.99648 3.38405,-29.59339 -4.62367,-36.82789 C 520.81996,93.22879 523.68896,93.556263 462.5,93 l -55,-0.5 -0.31995,-2.786552 c -0.32104,-2.79605 4.22818,-18.127663 6.06974,-20.456032 0.76057,-0.961622 15.24224,-1.300789 64.04661,-1.5 L 540.36021,67.5 542.99766,63 c 1.45059,-2.475 5.2368,-9.351082 8.41379,-15.280182 l 5.77634,-10.780181 -75.84389,0.287419 c -85.41664,0.323697 -80.65895,-0.103061 -89.94129,8.067583 -6.47085,5.695875 -10.42169,12.283831 -15.1158,25.205361 -10.90766,30.02563 -9.36778,41.76815 6.5127,49.66314 L 387.5,122.5 l 54.92766,0.275 c 38.02031,0.19036 55.3347,0.61281 56.25,1.37245 1.92784,1.59996 1.66781,3.75016 -1.74015,14.3891 -2.52119,7.87062 -3.50484,9.72865 -5.5651,10.51196 C 489.8811,149.61551 462.27609,150 423.05947,150 h -65.81033 l -6.26486,11.25 c -3.44567,6.1875 -7.36949,13.1625 -8.71959,15.5 l -2.45473,4.25 h 77.38492 c 66.48794,0 78.2242,-0.21719 83.34502,-1.54234 z"
         id="path172" />
    </g>
  </g>
</svg>
